<svg width="30" height="30" viewBox="0 0 30 30" fill="none" xmlns="http://www.w3.org/2000/svg">
<g clip-path="url(#clip0_2_1104)">
<path d="M29.8169 14.5581L20.4419 5.18312C20.1977 4.93896 19.8022 4.93896 19.5581 5.18312C19.314 5.42728 19.314 5.82279 19.5581 6.06689L27.8663 14.375H0.62502C0.279551 14.375 0 14.6546 0 15C0 15.3455 0.279551 15.6251 0.62502 15.6251H27.8663L19.5581 23.9331C19.314 24.1773 19.314 24.5728 19.5581 24.8169C19.6802 24.9389 19.8401 25 20 25C20.1599 25 20.3198 24.9389 20.442 24.8169L29.817 15.4419C30.0611 15.1978 30.0611 14.8023 29.8169 14.5581Z" fill="#FDDA31"/>
</g>
<defs>
<clipPath id="clip0_2_1104">
<rect width="30" height="30" fill="white"/>
</clipPath>
</defs>
</svg>
