<svg width="30" height="30" viewBox="0 0 30 30" fill="none" xmlns="http://www.w3.org/2000/svg">
<g clip-path="url(#clip0_2_1098)">
<path d="M0.183105 15.4419L9.55811 24.8169C9.80227 25.061 10.1978 25.061 10.4419 24.8169C10.686 24.5727 10.686 24.1772 10.4419 23.9331L2.13375 15.625L29.375 15.625C29.7204 15.625 30 15.3454 30 15C30 14.6545 29.7204 14.3749 29.375 14.3749L2.13375 14.3749L10.4419 6.06687C10.686 5.82271 10.686 5.42721 10.4419 5.18311C10.3198 5.06105 10.1599 5 9.99996 5C9.84006 5 9.68016 5.06105 9.55805 5.18311L0.183046 14.5581C-0.0610542 14.8022 -0.0610542 15.1977 0.183105 15.4419Z" fill="#FDDA31"/>
</g>
<defs>
<clipPath id="clip0_2_1098">
<rect width="30" height="30" fill="white" transform="translate(30 30) rotate(-180)"/>
</clipPath>
</defs>
</svg>
