<svg width="29" height="29" viewBox="0 0 29 29" fill="none" xmlns="http://www.w3.org/2000/svg">
<path d="M21.5801 13.3672H15.6328V7.41992C15.6328 6.79688 15.123 6.28711 14.5 6.28711C13.877 6.28711 13.3672 6.79688 13.3672 7.41992V13.3672H7.41992C6.79688 13.3672 6.28711 13.877 6.28711 14.5C6.28711 15.123 6.79688 15.6328 7.41992 15.6328H13.3672V21.5801C13.3672 22.2031 13.877 22.7129 14.5 22.7129C15.123 22.7129 15.6328 22.2031 15.6328 21.5801V15.6328H21.5801C22.2031 15.6328 22.7129 15.123 22.7129 14.5C22.7129 13.877 22.2031 13.3672 21.5801 13.3672Z" fill="#FDDA31"/>
</svg>
