<svg width="30" height="30" viewBox="0 0 30 30" fill="none" xmlns="http://www.w3.org/2000/svg">
<path d="M26.2498 0H3.74983C1.68198 0 0 1.68219 0 3.74997V26.2497C0 28.3177 1.68204 29.9999 3.74983 29.9999H26.2498C28.318 29.9999 30 28.3177 30 26.2497V3.75003C30.0001 1.68219 28.318 0 26.2498 0Z" fill="#1B80E4"/>
<path d="M25.3125 15.0003H20.6249V11.2503C20.6249 10.2151 21.4651 10.3129 22.4999 10.3129H24.3751V5.62524H20.6249C17.5181 5.62524 15.0001 8.14324 15.0001 11.2503V15.0003H11.2502V19.6878H15.0001V30.0003H20.6249V19.6878H23.4374L25.3125 15.0003Z" fill="#FCFCFC"/>
</svg>
