<svg width="12" height="15" viewBox="0 0 12 15" fill="none" xmlns="http://www.w3.org/2000/svg">
<g clip-path="url(#clip0_2_338)">
<path d="M12 9.66147C12 12.6099 9.3125 15.0005 6 15.0005C2.6875 15.0005 0 12.6099 0 9.66147C0 6.51381 3.945 1.76772 5.4375 0.0872488C5.46899 0.0463217 5.51373 0.0160165 5.56507 0.000840047C5.61641 -0.0143364 5.6716 -0.0135735 5.72243 0.00301531C5.77327 0.0196041 5.81704 0.0511327 5.84723 0.0929126C5.87742 0.134692 5.89242 0.184492 5.89 0.234905C5.7625 1.64116 5.85 4.65053 8.535 6.15053C8.58871 6.18466 8.65448 6.19787 8.71839 6.18737C8.7823 6.17687 8.83936 6.14349 8.8775 6.09428C9.21402 5.6295 9.40854 5.08728 9.44 4.52631C9.44293 4.47479 9.46391 4.42561 9.49969 4.38641C9.53546 4.3472 9.58404 4.32016 9.63788 4.30948C9.69172 4.2988 9.74782 4.30507 9.79747 4.32732C9.84713 4.34958 9.88756 4.38657 9.9125 4.43256C11.055 6.19506 12 8.11928 12 9.66147Z" fill="#FF7F00"/>
<path d="M2.25 11.6625C2.25 13.507 3.93 15 6 15C8.07 15 9.75 13.507 9.75 11.6625C9.75 9.81798 7.5775 7.08985 6.54 5.89454C6.50892 5.85251 6.46402 5.82116 6.41216 5.80528C6.3603 5.7894 6.30432 5.78986 6.25277 5.8066C6.20121 5.82333 6.15691 5.85541 6.12662 5.89794C6.09633 5.94048 6.08171 5.99114 6.085 6.0422C6.1225 6.9797 5.9475 8.56642 4.4975 9.42892C4.46933 9.4464 4.43768 9.45835 4.40444 9.46405C4.37121 9.46974 4.33709 9.46907 4.30415 9.46206C4.2712 9.45505 4.24012 9.44185 4.21276 9.42327C4.18541 9.40468 4.16236 9.38109 4.145 9.35392C4.01898 9.15159 3.9342 8.92906 3.895 8.69767C3.8893 8.64674 3.86596 8.59897 3.82856 8.56165C3.79116 8.52433 3.74175 8.49952 3.68789 8.49102C3.63403 8.48251 3.57868 8.49078 3.5303 8.51455C3.48192 8.53833 3.44318 8.5763 3.42 8.62267C2.7625 9.66095 2.25 10.7649 2.25 11.6625Z" fill="#FFDA00"/>
<path d="M8.0625 13.1649C8.05701 13.4127 7.99914 13.6571 7.89225 13.8839C7.78535 14.1106 7.63155 14.3153 7.43974 14.4859C7.24793 14.6566 7.02192 14.7899 6.77479 14.8782C6.52766 14.9664 6.26432 15.0078 6 15C5.73568 15.0078 5.47234 14.9664 5.22521 14.8782C4.97808 14.7899 4.75207 14.6566 4.56026 14.4859C4.36845 14.3153 4.21465 14.1106 4.10775 13.8839C4.00086 13.6571 3.94299 13.4127 3.9375 13.1649C3.9375 12.2578 4.8875 10.9688 5.5 10.2328C5.5299 10.1925 5.57254 10.1621 5.6219 10.1457C5.67126 10.1294 5.72485 10.1279 5.77511 10.1417C5.82537 10.1554 5.86977 10.1836 5.90205 10.2222C5.93433 10.2608 5.95285 10.308 5.955 10.3571C5.95596 10.6425 6.0236 10.9243 6.15317 11.1827C6.28275 11.441 6.4711 11.6696 6.705 11.8524C6.73556 11.877 6.77203 11.8944 6.81131 11.903C6.85058 11.9116 6.89148 11.9111 6.93053 11.9017C6.96958 11.8923 7.00562 11.8741 7.03556 11.8488C7.06551 11.8235 7.08847 11.7917 7.1025 11.7563C7.11743 11.7121 7.14598 11.6731 7.18454 11.6442C7.22309 11.6152 7.26994 11.5976 7.31915 11.5936C7.36837 11.5896 7.41775 11.5993 7.46106 11.6216C7.50437 11.6439 7.53967 11.6777 7.5625 11.7188C7.84702 12.1577 8.01824 12.6529 8.0625 13.1649Z" fill="white"/>
</g>
<defs>
<clipPath id="clip0_2_338">
<rect width="12" height="15" fill="white"/>
</clipPath>
</defs>
</svg>
