<svg width="30" height="30" viewBox="0 0 30 30" fill="none" xmlns="http://www.w3.org/2000/svg">
<g clip-path="url(#clip0_2_1108)">
<path d="M10.7133 13.5938H2.88047C2.11671 13.5931 1.38441 13.2895 0.844355 12.7494C0.304297 12.2093 0.000620689 11.477 0 10.7133L0 2.88047C0.000620689 2.11671 0.304297 1.38441 0.844355 0.844355C1.38441 0.304297 2.11671 0.000620689 2.88047 0L10.7133 0C11.477 0.000620689 12.2093 0.304297 12.7494 0.844355C13.2895 1.38441 13.5931 2.11671 13.5938 2.88047V10.7133C13.5931 11.477 13.2895 12.2093 12.7494 12.7494C12.2093 13.2895 11.477 13.5931 10.7133 13.5938ZM2.88047 0.9375C2.36535 0.93812 1.87151 1.14302 1.50727 1.50727C1.14302 1.87151 0.93812 2.36535 0.9375 2.88047V10.7133C0.93812 11.2284 1.14302 11.7222 1.50727 12.0865C1.87151 12.4507 2.36535 12.6556 2.88047 12.6562H10.7133C11.2284 12.6556 11.7222 12.4507 12.0865 12.0865C12.4507 11.7222 12.6556 11.2284 12.6562 10.7133V2.88047C12.6556 2.36535 12.4507 1.87151 12.0865 1.50727C11.7222 1.14302 11.2284 0.93812 10.7133 0.9375H2.88047Z" fill="#FDDA31"/>
<path d="M27.1195 13.5938H19.2867C18.523 13.5931 17.7907 13.2895 17.2506 12.7494C16.7105 12.2093 16.4069 11.477 16.4062 10.7133V2.88047C16.4069 2.11671 16.7105 1.38441 17.2506 0.844355C17.7907 0.304297 18.523 0.000620689 19.2867 0L27.1195 0C27.8833 0.000620689 28.6156 0.304297 29.1556 0.844355C29.6957 1.38441 29.9994 2.11671 30 2.88047V10.7133C29.9994 11.477 29.6957 12.2093 29.1556 12.7494C28.6156 13.2895 27.8833 13.5931 27.1195 13.5938ZM19.2867 0.9375C18.7716 0.93812 18.2778 1.14302 17.9135 1.50727C17.5493 1.87151 17.3444 2.36535 17.3438 2.88047V10.7133C17.3444 11.2284 17.5493 11.7222 17.9135 12.0865C18.2778 12.4507 18.7716 12.6556 19.2867 12.6562H27.1195C27.6346 12.6556 28.1285 12.4507 28.4927 12.0865C28.857 11.7222 29.0619 11.2284 29.0625 10.7133V2.88047C29.0619 2.36535 28.857 1.87151 28.4927 1.50727C28.1285 1.14302 27.6346 0.93812 27.1195 0.9375H19.2867Z" fill="#FDDA31"/>
<path d="M10.7133 30H2.88047C2.11671 29.9994 1.38441 29.6957 0.844355 29.1556C0.304297 28.6156 0.000620689 27.8833 0 27.1195V19.2867C0.000620689 18.523 0.304297 17.7907 0.844355 17.2506C1.38441 16.7105 2.11671 16.4069 2.88047 16.4062H10.7133C11.477 16.4069 12.2093 16.7105 12.7494 17.2506C13.2895 17.7907 13.5931 18.523 13.5938 19.2867V27.1195C13.5931 27.8833 13.2895 28.6156 12.7494 29.1556C12.2093 29.6957 11.477 29.9994 10.7133 30ZM2.88047 17.3438C2.36535 17.3444 1.87151 17.5493 1.50727 17.9135C1.14302 18.2778 0.93812 18.7716 0.9375 19.2867V27.1195C0.93812 27.6346 1.14302 28.1285 1.50727 28.4927C1.87151 28.857 2.36535 29.0619 2.88047 29.0625H10.7133C11.2284 29.0619 11.7222 28.857 12.0865 28.4927C12.4507 28.1285 12.6556 27.6346 12.6562 27.1195V19.2867C12.6556 18.7716 12.4507 18.2778 12.0865 17.9135C11.7222 17.5493 11.2284 17.3444 10.7133 17.3438H2.88047Z" fill="#FDDA31"/>
<path d="M27.1195 30H19.2867C18.523 29.9994 17.7907 29.6957 17.2506 29.1556C16.7105 28.6156 16.4069 27.8833 16.4062 27.1195V19.2867C16.4069 18.523 16.7105 17.7907 17.2506 17.2506C17.7907 16.7105 18.523 16.4069 19.2867 16.4062H27.1195C27.8833 16.4069 28.6156 16.7105 29.1556 17.2506C29.6957 17.7907 29.9994 18.523 30 19.2867V27.1195C29.9994 27.8833 29.6957 28.6156 29.1556 29.1556C28.6156 29.6957 27.8833 29.9994 27.1195 30ZM19.2867 17.3438C18.7716 17.3444 18.2778 17.5493 17.9135 17.9135C17.5493 18.2778 17.3444 18.7716 17.3438 19.2867V27.1195C17.3444 27.6346 17.5493 28.1285 17.9135 28.4927C18.2778 28.857 18.7716 29.0619 19.2867 29.0625H27.1195C27.6346 29.0619 28.1285 28.857 28.4927 28.4927C28.857 28.1285 29.0619 27.6346 29.0625 27.1195V19.2867C29.0619 18.7716 28.857 18.2778 28.4927 17.9135C28.1285 17.5493 27.6346 17.3444 27.1195 17.3438H19.2867Z" fill="#FDDA31"/>
</g>
<defs>
<clipPath id="clip0_2_1108">
<rect width="30" height="30" fill="white"/>
</clipPath>
</defs>
</svg>
